<?xml version="1.0" encoding="UTF-8"?><svg xmlns="http://www.w3.org/2000/svg" xmlns:xlink="http://www.w3.org/1999/xlink" viewBox="0 0 230.23 230.23"><defs><style>.h{fill:url(#e);}.h,.i{opacity:.5;}.j{fill:url(#d);}.k{fill:url(#f);opacity:.1;}.i{fill:url(#g);}.l{fill:#ededed;}</style><radialGradient id="d" cx="209.96" cy="220.91" fx="-45.17" fy="220.91" r="255.14" gradientTransform="matrix(1, 0, 0, 1, 0, 0)" gradientUnits="userSpaceOnUse"><stop offset="0" stop-color="#ed5c5c"/><stop offset=".99" stop-color="#fb873f"/></radialGradient><radialGradient id="e" cx="192.13" cy="305.22" fx="-142.9" fy="305.22" r="335.04" gradientTransform="matrix(1, 0, 0, 1, 0, 0)" gradientUnits="userSpaceOnUse"><stop offset=".03" stop-color="#fff" stop-opacity="0"/><stop offset=".64" stop-color="#fff" stop-opacity="0"/><stop offset="1" stop-color="#fff"/></radialGradient><linearGradient id="f" x1="180.81" y1="211.52" x2="118.59" y2="78.09" gradientTransform="matrix(1, 0, 0, 1, 0, 0)" gradientUnits="userSpaceOnUse"><stop offset=".03" stop-color="#000" stop-opacity="0"/><stop offset="1" stop-color="#000"/></linearGradient><linearGradient id="g" x1="70.83" y1="115.12" x2="159.4" y2="115.12" gradientTransform="matrix(1, 0, 0, 1, 0, 0)" gradientUnits="userSpaceOnUse"><stop offset=".4" stop-color="#000" stop-opacity="0"/><stop offset="1" stop-color="#000" stop-opacity=".2"/></linearGradient></defs><g id="a"/><g id="b"><g id="c"><g><circle class="j" cx="115.12" cy="115.12" r="115.12"/><circle class="h" cx="115.12" cy="115.12" r="115.12"/><path class="k" d="M146.89,225.78c32.87-9.42,59.72-33.09,73.43-63.9l-85.81-91.22,17.29,29.12s5.9,30-1.4,52.43-46.96,27.78-46.96,27.78l43.45,45.78Z"/><path class="l" d="M105.74,184c-19.25,0-34.92-15.66-34.92-34.92,0-12.78,10.4-23.18,23.18-23.18,8.93,0,16.2,7.24,16.2,16.14,0,6.35-5.17,11.52-11.52,11.52-5.03,0-9.12-4.1-9.12-9.13,0-3.78,3.07-6.86,6.85-6.86,2.47,0,4.47,2,4.47,4.47,0,.66-.14,1.3-.41,1.86,.49-.47,.79-1.13,.79-1.86,0-3.97-3.26-7.2-7.27-7.2-7.86,0-14.25,6.39-14.25,14.25,0,14.33,11.66,25.98,25.98,25.98,24.66,0,44.72-20.06,44.72-44.72,0-41.45-33.72-75.17-75.17-75.17-2.47,0-4.47-2-4.47-4.47s2-4.47,4.47-4.47c46.38,0,84.11,37.73,84.11,84.11,0,29.59-24.07,53.66-53.66,53.66Z"/><path class="i" d="M105.74,184c-19.25,0-34.92-15.66-34.92-34.92,0-12.78,10.4-23.18,23.18-23.18,8.93,0,16.2,7.24,16.2,16.14,0,6.35-5.17,11.52-11.52,11.52-5.03,0-9.12-4.1-9.12-9.13,0-3.78,3.07-6.86,6.85-6.86,2.47,0,4.47,2,4.47,4.47,0,.66-.14,1.3-.41,1.86,.49-.47,.79-1.13,.79-1.86,0-3.97-3.26-7.2-7.27-7.2-7.86,0-14.25,6.39-14.25,14.25,0,14.33,11.66,25.98,25.98,25.98,24.66,0,44.72-20.06,44.72-44.72,0-41.45-33.72-75.17-75.17-75.17-2.47,0-4.47-2-4.47-4.47s2-4.47,4.47-4.47c46.38,0,84.11,37.73,84.11,84.11,0,29.59-24.07,53.66-53.66,53.66Z"/></g></g></g></svg>