<?xml version="1.0" encoding="UTF-8"?><svg xmlns="http://www.w3.org/2000/svg" xmlns:xlink="http://www.w3.org/1999/xlink" viewBox="0 0 230.23 230.23"><defs><style>.h{fill:#fff;}.i{fill:url(#e);}.i,.j{opacity:.5;}.k{fill:#b8b8b8;}.l{fill:#fdfdfd;}.m{fill:#0069b4;}.n{fill:url(#d);}.o{fill:url(#f);opacity:.1;}.j{fill:url(#g);}</style><radialGradient id="d" cx="209.96" cy="220.91" fx="-45.17" fy="220.91" r="255.14" gradientTransform="matrix(1, 0, 0, 1, 0, 0)" gradientUnits="userSpaceOnUse"><stop offset="0" stop-color="#0ba9f4"/><stop offset="1" stop-color="#62e1fb"/></radialGradient><radialGradient id="e" cx="192.13" cy="305.22" fx="-142.9" fy="305.22" r="335.04" gradientTransform="matrix(1, 0, 0, 1, 0, 0)" gradientUnits="userSpaceOnUse"><stop offset=".03" stop-color="#fff" stop-opacity="0"/><stop offset=".64" stop-color="#fff" stop-opacity="0"/><stop offset="1" stop-color="#fff"/></radialGradient><linearGradient id="f" x1="174.08" y1="214.66" x2="117.74" y2="93.84" gradientTransform="matrix(1, 0, 0, 1, 0, 0)" gradientUnits="userSpaceOnUse"><stop offset=".03" stop-color="#000" stop-opacity="0"/><stop offset="1" stop-color="#000"/></linearGradient><linearGradient id="g" x1="67.41" y1="115.12" x2="162.82" y2="115.12" gradientTransform="matrix(1, 0, 0, 1, 0, 0)" gradientUnits="userSpaceOnUse"><stop offset=".4" stop-color="#000" stop-opacity="0"/><stop offset="1" stop-color="#000" stop-opacity=".2"/></linearGradient></defs><g id="a"/><g id="b"><g id="c"><g><circle class="n" cx="115.12" cy="115.12" r="115.12"/><circle class="i" cx="115.12" cy="115.12" r="115.12"/><path class="o" d="M159.57,221.33c28.74-12.04,51.56-35.41,62.87-64.51,.58-1.48-61.84-82.96-61.84-82.96l-54.32,46.97-3.09,26.32,12.25,12.25-42.11,.87,61.23,68.33c6.97,0,25-7.26,25-7.26Z"/><rect class="h" x="67.41" y="67.41" width="95.41" height="95.41" rx="13.98" ry="13.98"/><rect class="l" x="67.41" y="67.41" width="95.41" height="95.41" rx="13.98" ry="13.98"/><rect class="j" x="67.41" y="67.41" width="95.41" height="95.41" rx="13.98" ry="13.98"/><rect class="m" x="83.6" y="131.09" width="63.04" height="18.12" rx="9.06" ry="9.06"/><rect class="k" x="83.6" y="84.31" width="63.04" height="5.5" rx="2.75" ry="2.75"/><rect class="k" x="83.6" y="93.41" width="63.04" height="5.5" rx="2.75" ry="2.75"/></g></g></g></svg>