<?xml version="1.0" encoding="utf-8"?>
<!-- Generator: Adobe Illustrator 26.1.0, SVG Export Plug-In . SVG Version: 6.00 Build 0)  -->
<svg version="1.1" id="Camada_1" xmlns="http://www.w3.org/2000/svg" xmlns:xlink="http://www.w3.org/1999/xlink" x="0px" y="0px"
	 viewBox="0 0 256 104" style="enable-background:new 0 0 256 104;" xml:space="preserve">
<g>
	<path d="M20.8,97v5.4h-17V0.5h17v34.7c4.2-4,9.2-6.7,14.8-6.7c13.1,0,16.1,14,16.1,24.3v24.6c0,14.5-4.7,26-16.9,26
		C29.6,103.5,24.8,100.7,20.8,97z M34.6,78.1V51.9c0-6.5-1.1-11.9-6.3-11.9c-2.9,0-5.4,1.4-7.5,3v46c2.1,1.5,4.7,2.5,7.5,2.5
		C33.7,91.6,34.6,85.5,34.6,78.1z"/>
	<path d="M62.4,77.6V55.3c0-15,4.3-26.8,17.4-26.8c5,0,9.6,2.4,13.1,5.8V0.5h17.2v101.9H92.8v-5.2c-3.8,3.9-8.2,6.3-13,6.3
		C68.3,103.5,62.4,95.7,62.4,77.6z M92.8,89.3V42.6c-1.9-1.4-4.3-2.4-6.8-2.4c-5,0-6.5,5.2-6.5,11.4v27.2c0,7.3,1.1,12.8,6.5,12.8
		C88.1,91.7,90.5,90.9,92.8,89.3z"/>
	<path d="M123.7,3.9h17.1v14.2h-17.1V3.9z M123.7,29.7h17.1v72.7h-17.1V29.7z"/>
	<path d="M152.7,86.3c0-18.1,14.7-23.6,29.3-29.1v-6.3c0-6.2-0.9-9.7-5.8-9.7c-4.4,0-5.9,3.3-6,8l-0.3,4.4l-16.2-0.6
		c0.5-16.7,8-24.5,23.9-24.5c14.6,0,21,8.6,21,22.4v33.6c0,8,0.8,13.8,1.3,17.9h-15.3c-0.6-3.3-1.5-8.4-1.8-10.4
		c-1.8,5.8-6.3,11.6-14.3,11.6C158.6,103.5,152.7,94.7,152.7,86.3z M182,86V65.6c-7.5,4.4-13.2,8.6-13.2,16.5c0,5.4,2.1,8.7,5.9,8.7
		C178,90.8,180.8,87.9,182,86z"/>
	<path d="M207.4,84.3l12.7-4.9c1.9,7.9,5.3,12.2,10.6,12.2c3.9,0,6-2.1,6-5.7c0-4-2.1-6.7-8-11.6l-8.7-7.5
		c-6.5-5.4-10.8-10.4-10.8-19.2c0-11.7,8.9-19,20.6-19c11.8,0,18.9,7.7,21,18.9l-11.2,4.8c-1.3-6-4.2-11.4-9.3-11.4
		c-3.6,0-5.8,2.5-5.8,5.8c0,2.8,2.5,5.8,7,9.6l8.8,8c5.8,5,11.8,10.8,11.8,20.1c0,12.7-9.4,19.2-21.3,19.2
		C218.6,103.5,210.7,96.8,207.4,84.3z"/>
</g>
</svg>
