<svg xmlns="http://www.w3.org/2000/svg" xmlns:xlink="http://www.w3.org/1999/xlink" preserveAspectRatio="xMidYMid" width="48" height="48" viewBox="0 0 48 48">
  <defs>
    <style>
      .cls-1 {
        fill: #98aafa;
        fill-rule: evenodd;
      }
    </style>
  </defs>
  <path d="M47.000,47.999 L37.000,47.999 C36.447,47.999 36.000,47.552 36.000,46.999 L36.000,32.057 C36.000,27.665 35.730,24.999 32.000,24.999 C29.661,24.999 28.955,25.944 28.601,26.769 C28.066,28.016 28.066,29.824 28.066,31.739 L28.066,46.999 C28.066,47.552 27.619,47.999 27.066,47.999 L17.000,47.999 C16.447,47.999 16.000,47.552 16.000,46.999 L16.000,15.999 C16.000,15.446 16.447,14.999 17.000,14.999 L27.066,14.999 C27.619,14.999 28.066,15.446 28.066,15.999 L28.066,17.639 C30.000,15.953 32.790,14.999 36.000,14.999 C47.073,14.999 48.000,22.481 48.000,30.145 L48.000,46.999 C48.000,47.552 47.553,47.999 47.000,47.999 ZM46.000,30.145 C46.000,21.426 44.453,16.998 36.000,16.998 C32.259,16.998 29.250,18.472 27.951,20.937 C27.737,21.344 27.277,21.553 26.826,21.442 C26.380,21.333 26.066,20.932 26.066,20.472 L26.066,16.998 L18.000,16.998 L18.000,45.999 L26.066,45.999 L26.066,31.800 C26.066,29.613 26.066,27.604 26.764,25.979 C27.613,24.002 29.375,22.999 32.000,22.999 C38.000,22.999 38.000,28.235 38.000,32.057 L38.000,45.999 L46.000,45.999 L46.000,30.145 ZM12.000,47.999 L1.000,47.999 C0.447,47.999 -0.000,47.552 -0.000,46.999 L-0.000,15.999 C-0.000,15.446 0.447,14.999 1.000,14.999 L12.000,14.999 C12.553,14.999 13.000,15.446 13.000,15.999 L13.000,46.999 C13.000,47.552 12.553,47.999 12.000,47.999 ZM11.000,16.998 L2.000,16.998 L2.000,45.999 L11.000,45.999 L11.000,16.998 ZM6.492,12.982 C2.912,12.982 -0.000,10.070 -0.000,6.491 C-0.000,2.911 2.912,-0.001 6.492,-0.001 C10.071,-0.001 12.983,2.911 12.983,6.491 C12.983,10.070 10.071,12.982 6.492,12.982 ZM6.492,1.999 C4.016,1.999 2.000,4.015 2.000,6.491 C2.000,8.968 4.016,10.982 6.492,10.982 C8.969,10.982 10.983,8.968 10.983,6.491 C10.983,4.015 8.969,1.999 6.492,1.999 Z" class="cls-1"/>
</svg>
