<svg xmlns="http://www.w3.org/2000/svg" xmlns:xlink="http://www.w3.org/1999/xlink" preserveAspectRatio="xMidYMid" width="48" height="48" viewBox="0 0 48 48">
  <defs>
    <style>
      .cls-1 {
        fill: #98aafa;
        fill-rule: evenodd;
      }
    </style>
  </defs>
  <path d="M42.999,48.000 L5.000,48.000 C2.243,48.000 -0.000,45.756 -0.000,42.999 L-0.000,4.999 C-0.000,2.243 2.243,-0.001 5.000,-0.001 L42.999,-0.001 C45.756,-0.001 47.999,2.243 47.999,4.999 L47.999,42.999 C47.999,45.756 45.756,48.000 42.999,48.000 ZM11.948,1.999 L5.000,1.999 C3.346,1.999 2.000,3.345 2.000,4.999 L2.000,15.014 L11.948,15.014 L11.948,1.999 ZM45.999,4.999 C45.999,3.345 44.653,1.999 42.999,1.999 L13.948,1.999 L13.948,15.014 L16.037,15.014 C18.152,13.153 20.916,12.015 23.948,12.015 C26.992,12.015 29.766,13.163 31.884,15.038 C31.923,15.033 31.958,15.014 31.998,15.014 L45.999,15.000 L45.999,4.999 ZM13.948,24.015 C13.948,29.528 18.434,34.015 23.948,34.015 C29.461,34.015 33.947,29.528 33.947,24.015 C33.947,18.501 29.461,14.015 23.948,14.015 C21.387,14.015 19.055,14.991 17.284,16.580 C17.196,16.705 17.087,16.807 16.953,16.881 C15.101,18.697 13.948,21.223 13.948,24.015 ZM45.999,17.000 L33.674,17.013 C35.098,18.987 35.947,21.401 35.947,24.015 C35.947,30.632 30.565,36.014 23.948,36.014 C17.331,36.014 11.948,30.632 11.948,24.015 C11.948,21.402 12.797,18.988 14.220,17.015 L2.000,17.015 L2.000,42.999 C2.000,44.653 3.346,45.999 5.000,45.999 L42.999,45.999 C44.653,45.999 45.999,44.653 45.999,42.999 L45.999,17.000 ZM37.723,4.028 L41.186,4.028 C42.708,4.028 43.947,5.267 43.947,6.790 L43.947,10.252 C43.947,11.776 42.708,13.015 41.186,13.015 L37.723,13.015 C36.200,13.015 34.961,11.776 34.961,10.252 L34.961,6.790 C34.961,5.267 36.200,4.028 37.723,4.028 ZM36.961,10.252 C36.961,10.673 37.303,11.015 37.723,11.015 L41.186,11.015 C41.605,11.015 41.947,10.673 41.947,10.252 L41.947,6.790 C41.947,6.369 41.605,6.027 41.186,6.027 L37.723,6.027 C37.303,6.027 36.961,6.369 36.961,6.790 L36.961,10.252 Z" class="cls-1"/>
</svg>
