<svg xmlns="http://www.w3.org/2000/svg" width="1154" height="1124">
<g fill="#ffffff" stroke="none">
<circle cx="199.19" cy="721.48" r="49" />
<rect x="728.33" y="886.73" width="20" height="34.6" transform="translate(-354.73 1313.43) rotate(-71.29)" />
<rect x="657.33" y="862.69" width="20" height="34.6" transform="translate(-380.19 1229.87) rotate(-71.3)" />
<rect x="515.33" y="814.61" width="20" height="34.6" transform="translate(-431.11 1062.71) rotate(-71.3)" />
<rect x="586.33" y="838.65" width="20" height="34.6" transform="translate(-405.65 1146.29) rotate(-71.3)" />
<rect x="444.33" y="790.57" width="20" height="34.6" transform="translate(-456.57 979.11) rotate(-71.29)" />
<polygon points="396.51 798.85 402.93 779.91 389.78 775.46 439.36 753.18 433.61 740.4 356.93 774.88 396.88 848.86 409.22 842.21 383.39 794.41 396.51 798.85" />
<polygon points="783.45 869.68 809.3 917.5 796.15 913.05 789.74 931.99 802.86 936.44 753.31 958.71 759.07 971.49 835.75 937 795.79 863.03 783.45 869.68" />
<polygon points="794.14 231.13 848.11 237.66 308.64 629.6 320.4 645.78 859.84 253.86 849.39 307.17 863.14 309.86 879.3 227.34 795.84 217.22 794.14 231.13" />
<polygon points="19.69 596.8 34.31 596.8 34.31 637.69 44.49 637.69 44.49 596.8 59.12 596.8 59.12 586.76 19.69 586.76 19.69 596.8" />
<polygon points="100 606.26 79.12 606.26 79.12 586.76 68.94 586.76 68.94 637.69 79.12 637.69 79.12 616.3 100 616.3 100 637.69 110.19 637.69 110.19 586.76 100 586.76 100 606.26" />
<rect x="124.01" y="586.76" width="10.19" height="50.93" />
<path d="M158.06,615.28c0-2.83-.15-9.24-.15-11.13.66,1.31,2.33,3.86,3.57,5.75l18.69,27.79h9.1V586.76h-10V608.3c0,2.84.14,9.24.14,11.13-.65-1.31-2.33-3.85-3.56-5.75l-18-26.92H148v50.93h10Z" />
<path d="M212.55,622.7l8.14-9.6,13.83,24.59h12.22L228,604.37,243,586.76h-12.3L216.4,604.15c-1.38,1.68-3.27,4-4,5.17.07-1.6.15-6.19.15-8.08V586.76H202.36v50.93h10.19Z" />
<path d="M931.37,995.14c0,8.15-4,13.17-10.48,13.17s-10.4-5.16-10.4-13.31V966.55H900.3v28.59c0,14.85,8.3,23.14,20.59,23.14,13,0,20.66-8.51,20.66-23.28V966.55H931.37Z" />
<path d="M974.58,986.34c-8.08-1.89-10.26-2.91-10.26-6.11,0-2.26,1.82-4.58,7.28-4.58,4.65,0,8.29,1.89,11.57,5.23l7.34-7.13a24.33,24.33,0,0,0-18.55-8c-10,0-18.19,5.68-18.19,14.92,0,10,6.55,13,15.94,15.2,9.6,2.18,11.35,3.64,11.35,6.91,0,3.86-2.84,5.53-8.88,5.53a16.48,16.48,0,0,1-13-5.82l-7.35,6.55c3.85,5.67,11.28,9.24,19.79,9.24,13.89,0,20-6.55,20-16.22C991.6,991,982.66,988.23,974.58,986.34Z" />
<polygon points="1012.55 995.22 1027.18 995.22 1027.18 985.32 1012.55 985.32 1012.55 976.52 1037.73 976.52 1037.73 966.55 1002.37 966.55 1002.37 1017.48 1038.82 1017.48 1038.82 1007.51 1012.55 1007.51 1012.55 995.22" />
<path d="M1090.91,982.7c0-10.84-7.93-16.15-17.54-16.15h-23.71v50.93h10.18V999.15h10.26l9.09,18.33h11.72l-9.75-19.79C1087.63,995.14,1090.91,990.34,1090.91,982.7Zm-17.75,6.84h-13.32V976.45h13.32c4.51,0,7.27,1.89,7.27,6.47S1077.89,989.54,1073.16,989.54Z" />
</g>
</svg>