<svg xmlns="http://www.w3.org/2000/svg" width="1154" height="1124">
<g fill="#ffffff" stroke="none">
<circle cx="159.19" cy="143.74" r="49" transform="translate(-34.53 235.8) rotate(-67.5)" />
<rect x="149.38" y="700.42" width="20" height="35.01" />
<rect x="149.38" y="624.56" width="20" height="35.01" />
<rect x="149.38" y="548.71" width="20" height="35.01" />
<rect x="149.38" y="396.99" width="20" height="35.01" />
<rect x="149.38" y="472.85" width="20" height="35.01" />
<polygon points="206.39 750.34 169.38 790.16 169.38 776.28 149.38 776.28 149.38 790.13 112.39 750.34 102.14 759.89 159.4 821.46 216.64 759.89 206.39 750.34" />
<polygon points="149.38 342.2 149.38 356.14 169.38 356.14 169.38 342.35 206.54 381.72 216.72 372.09 159 310.96 102.22 372.98 112.55 382.45 149.38 342.2" />
<polygon points="822.5 555.04 808.75 557.72 819.22 611.07 279.95 219.26 268.19 235.44 807.44 627.23 753.5 633.77 755.2 647.67 838.67 637.54 822.5 555.04" />
<path d="M93.71,43.39a11.64,11.64,0,0,0-7.13-11.13A11.19,11.19,0,0,0,92,22.36c0-8.73-6.26-13.45-16.15-13.45H52.46V59.83H75.6C86.51,59.83,93.71,54.08,93.71,43.39ZM62.43,18.29H75.38c4.44,0,6.26,1.67,6.26,4.87C81.64,26,80.11,28,75.89,28H62.43Zm0,18.7H76c5,0,7.28,2.18,7.28,6.55,0,4-2.33,6.62-7.28,6.62H62.43Z" />
<path d="M124.34,60.63c12.95,0,20.66-8.51,20.66-23.28V8.91H134.82V37.5c0,8.15-4,13.17-10.48,13.17s-10.4-5.17-10.4-13.32V8.91H103.75V37.5C103.75,52.34,112,60.63,124.34,60.63Z" />
<rect x="158.46" y="8.91" width="10.19" height="50.93" />
<polygon points="218.19 49.79 192.65 49.79 192.65 8.9 182.47 8.9 182.47 59.83 218.19 59.83 218.19 49.79" />
<path d="M243.5,8.91H227.57V59.83h15.21c13.09,0,26-7.56,26-25.46C268.82,15.74,258.06,8.91,243.5,8.91Zm-.72,41h-5V18.8h5.38c10.77,0,15.21,5.17,15.21,15.57C258.35,43.68,253.47,49.94,242.78,49.94Z" />
<path d="M96,995.14c0,8.15-4,13.17-10.48,13.17s-10.4-5.16-10.4-13.31V966.55H64.9v28.59c0,14.84,8.3,23.14,20.59,23.14,13,0,20.66-8.51,20.66-23.28V966.55H96Z" />
<path d="M139.18,986.34c-8.07-1.89-10.26-2.91-10.26-6.11,0-2.26,1.82-4.59,7.28-4.59,4.65,0,8.29,1.9,11.57,5.24l7.34-7.13a24.33,24.33,0,0,0-18.55-8c-10,0-18.19,5.68-18.19,14.91,0,10,6.55,13,15.94,15.21,9.6,2.18,11.35,3.64,11.35,6.91,0,3.86-2.84,5.53-8.88,5.53a16.48,16.48,0,0,1-13-5.82l-7.35,6.55c3.86,5.67,11.28,9.24,19.79,9.24,13.89,0,20-6.55,20-16.23C156.21,991,147.26,988.23,139.18,986.34Z" />
<polygon points="177.16 995.22 191.78 995.22 191.78 985.32 177.16 985.32 177.16 976.52 202.33 976.52 202.33 966.55 166.97 966.55 166.97 1017.48 203.42 1017.48 203.42 1007.51 177.16 1007.51 177.16 995.22" />
<path d="M255.51,982.7c0-10.84-7.93-16.15-17.54-16.15H214.26v50.93h10.18V999.14H234.7l9.1,18.34h11.71l-9.75-19.79C252.23,995.14,255.51,990.34,255.51,982.7Zm-17.75,6.84H224.44V976.45h13.32c4.51,0,7.27,1.89,7.27,6.47S242.49,989.54,237.76,989.54Z" />
</g>
</svg>