<svg xmlns="http://www.w3.org/2000/svg" width="1154" height="1124">
<g fill="#ffffff" stroke="none">
<circle cx="501.84" cy="836.27" r="49" />
<rect x="862.34" y="318.8" width="30" height="20" transform="translate(91.37 838.77) rotate(-53.52)" />
<path d="M789.52,464.4l-16.09-11.89,20.07-27.14,16.08,11.89ZM833,405.6l-16.08-11.89L837,366.57l16.08,11.89Z" />
<path d="M659.1,640.8,643,628.91l20.06-27.14,16.08,11.89ZM702.57,582l-16.08-11.89L706.55,543l16.09,11.89ZM746,523.2,730,511.31,750,484.17l16.08,11.89Z" />
<rect x="603.73" y="668.57" width="30" height="20" transform="translate(-294.74 772.66) rotate(-53.52)" />
<polygon points="812.64 320 815.2 333.77 883.05 321.05 890.78 389.65 904.71 388.07 895.27 304.52 812.64 320" />
<polygon points="591.35 619.29 605.28 617.71 613 686.31 680.86 673.59 683.42 687.37 600.78 702.84 591.35 619.29" />
<rect x="342.11" y="34.76" width="20" height="683.23" transform="translate(-99.07 127.23) rotate(-18)" />
<polygon points="206.42 113.29 219.12 119.21 248.19 56.59 308.52 90.16 315.32 77.91 241.84 37.04 206.42 113.29" />
<path d="M295.33,929.75H269.07v9.61h15.35v9.89H269.07v21.46H258.88V919.79h36.45Z" />
<path d="M343.93,945.18c0,16.44-9.24,26.33-22.48,26.33S299,961.76,299,945.32,308.28,919,321.6,919,343.93,928.74,343.93,945.18Zm-10.47.14c0-10.33-4.95-16.22-12.08-16.22s-11.86,5.75-11.86,16.08,5,16.22,12.08,16.22S333.46,955.65,333.46,945.32Z" />
<path d="M389.91,970.71H354.19V919.79h10.18v40.88h25.54Z" />
<path d="M435,970.71H399.29V919.79h10.19v40.88H435Z" />
<path d="M484.48,945.18c0,16.44-9.23,26.33-22.48,26.33s-22.4-9.75-22.4-26.19S448.84,919,462.15,919,484.48,928.74,484.48,945.18Zm-10.47.14c0-10.33-4.95-16.22-12.08-16.22s-11.86,5.75-11.86,16.08S455,961.4,462.15,961.4,474,955.65,474,945.32Z" />
<path d="M547.2,919.79l-10.63,50.92h-10l-6.26-26.19c-.73-3-1.46-6.84-1.75-8.73a85.3,85.3,0,0,1-1.67,8.73l-6.4,26.19H501l-10.62-50.92H501l4.44,24.8c.43,2.48,1,6.26,1.23,8.37.37-2.11,1.17-5.89,1.75-8.37l6-24.8h8.88l6,24.8c.58,2.48,1.38,6.26,1.74,8.37.22-2.11.81-6,1.24-8.37l4.44-24.8Z" />
</g>
</svg>