<svg xmlns="http://www.w3.org/2000/svg" xmlns:xlink="http://www.w3.org/1999/xlink" viewBox="0 0 44 44"><defs><style>.cls-1{fill:url(#Gradiente_sem_nome_1279);}.cls-2,.cls-5{opacity:0.5;}.cls-2{fill:url(#Gradiente_sem_nome_1038);}.cls-3{opacity:0.1;fill:url(#Gradiente_sem_nome_83);}.cls-4{fill:#ededed;}.cls-6{fill:url(#Gradiente_sem_nome_1292);}.cls-7{fill:url(#Gradiente_sem_nome_1292-2);}</style><radialGradient id="Gradiente_sem_nome_1279" cx="40.13" cy="42.22" fx="-8.632149979084573" r="48.76" gradientUnits="userSpaceOnUse"><stop offset="0" stop-color="#00c23d"/><stop offset="1" stop-color="#62fbb1"/></radialGradient><radialGradient id="Gradiente_sem_nome_1038" cx="36.72" cy="58.33" fx="-27.309482179640227" r="64.03" gradientUnits="userSpaceOnUse"><stop offset="0.03" stop-color="#fff" stop-opacity="0"/><stop offset="0.64" stop-color="#fff" stop-opacity="0"/><stop offset="1" stop-color="#fff"/></radialGradient><linearGradient id="Gradiente_sem_nome_83" x1="33.63" y1="40.86" x2="21.83" y2="15.57" gradientUnits="userSpaceOnUse"><stop offset="0.03" stop-opacity="0"/><stop offset="1"/></linearGradient><linearGradient id="Gradiente_sem_nome_1292" x1="19.06" y1="13.45" x2="24.94" y2="19.32" gradientUnits="userSpaceOnUse"><stop offset="0.4" stop-opacity="0"/><stop offset="1" stop-opacity="0.2"/></linearGradient><linearGradient id="Gradiente_sem_nome_1292-2" x1="17.31" y1="23.02" x2="26.69" y2="32.39" xlink:href="#Gradiente_sem_nome_1292"/></defs><g id="Camada_2" data-name="Camada 2"><g id="Camada_1-2" data-name="Camada 1"><circle class="cls-1" cx="22" cy="22" r="22"/><circle class="cls-2" cx="22" cy="22" r="22"/><path class="cls-3" d="M28.07,43.15a22,22,0,0,0,14-12.21L25.18,14,19.6,19.78,25,25.15l-9,5.84Z"/><circle id="profile-2" class="cls-4" cx="22" cy="16.39" r="4.16"/><path id="profile-1" class="cls-4" d="M22,21.26h0a7.08,7.08,0,0,1,7.08,7.08v.41a3,3,0,0,1-3,3H17.94a3,3,0,0,1-3-3v-.41A7.08,7.08,0,0,1,22,21.26Z"/><g class="cls-5"><circle class="cls-6" cx="22" cy="16.39" r="4.16"/><path class="cls-7" d="M22,21.26h0a7.08,7.08,0,0,1,7.08,7.08v.41a3,3,0,0,1-3,3H17.94a3,3,0,0,1-3-3v-.41A7.08,7.08,0,0,1,22,21.26Z"/></g></g></g></svg>