<svg xmlns="http://www.w3.org/2000/svg" xmlns:xlink="http://www.w3.org/1999/xlink" viewBox="0 0 44 44"><defs><style>.cls-1{fill:url(#Gradiente_sem_nome_1544);}.cls-2{opacity:0.5;fill:url(#Gradiente_sem_nome_1038);}.cls-3{opacity:0.1;fill:url(#Gradiente_sem_nome_83);}.cls-4{fill:#fdfdfd;}.cls-5{opacity:0.6;}.cls-6{fill:url(#Gradiente_sem_nome_1292);}.cls-7{fill:url(#Gradiente_sem_nome_1292-2);}</style><radialGradient id="Gradiente_sem_nome_1544" cx="40.13" cy="42.22" fx="-8.632149979084573" r="48.76" gradientUnits="userSpaceOnUse"><stop offset="0" stop-color="#ed5c5c"/><stop offset="0.99" stop-color="#fb873f"/></radialGradient><radialGradient id="Gradiente_sem_nome_1038" cx="36.72" cy="58.33" fx="-27.309482179640227" r="64.03" gradientUnits="userSpaceOnUse"><stop offset="0.03" stop-color="#fff" stop-opacity="0"/><stop offset="0.64" stop-color="#fff" stop-opacity="0"/><stop offset="1" stop-color="#fff"/></radialGradient><linearGradient id="Gradiente_sem_nome_83" x1="35.47" y1="40" x2="24.26" y2="15.95" gradientUnits="userSpaceOnUse"><stop offset="0.03" stop-opacity="0"/><stop offset="1"/></linearGradient><linearGradient id="Gradiente_sem_nome_1292" x1="16.8" y1="14.81" x2="27.21" y2="25.22" gradientUnits="userSpaceOnUse"><stop offset="0.4" stop-opacity="0"/><stop offset="1" stop-opacity="0.2"/></linearGradient><linearGradient id="Gradiente_sem_nome_1292-2" x1="20.5" y1="29.3" x2="23.5" y2="32.3" xlink:href="#Gradiente_sem_nome_1292"/></defs><g id="Camada_2" data-name="Camada 2"><g id="Camada_1-2" data-name="Camada 1"><circle class="cls-1" cx="22" cy="22" r="22"/><circle class="cls-2" cx="22" cy="22" r="22"/><path class="cls-3" d="M30.5,42.3A22.07,22.07,0,0,0,42.51,30c.11-.28-15.64-15.24-15.64-15.24l-6.56,8.36-.59,5,2.34,2.34-2.18,1.22Z"/><path id="lamp-1" class="cls-4" d="M22,28.23H20.13c-.43,0-.6-.18-.62-.61a4.59,4.59,0,0,0-1.64-3.43,7.05,7.05,0,0,1-2.28-3.74,6.82,6.82,0,0,1,5.15-8.1A6.72,6.72,0,0,1,26.39,24a5.41,5.41,0,0,0-1.68,2.38,5.28,5.28,0,0,0-.22,1.31c0,.4-.19.59-.58.59Z"/><rect id="lamp-2" class="cls-4" x="19.52" y="29.53" width="4.95" height="2.55" rx="1.28"/><g class="cls-5"><path class="cls-6" d="M22,28.23H20.13c-.43,0-.6-.18-.62-.61a4.59,4.59,0,0,0-1.64-3.43,7.05,7.05,0,0,1-2.28-3.74,6.82,6.82,0,0,1,5.15-8.1A6.72,6.72,0,0,1,26.39,24a5.41,5.41,0,0,0-1.68,2.38,5.28,5.28,0,0,0-.22,1.31c0,.4-.19.59-.58.59Z"/><rect class="cls-7" x="19.52" y="29.53" width="4.95" height="2.55" rx="1.28"/></g></g></g></svg>