<svg xmlns="http://www.w3.org/2000/svg" xmlns:xlink="http://www.w3.org/1999/xlink" viewBox="0 0 44 44"><defs><style>.cls-1{fill:url(#Gradiente_sem_nome_1055);}.cls-2{opacity:0.5;fill:url(#Gradiente_sem_nome_1038);}.cls-3{opacity:0.1;fill:url(#Gradiente_sem_nome_83);}.cls-4{fill:#ededed;}.cls-5{fill:url(#Gradiente_sem_nome_1160);}.cls-6{fill:url(#Gradiente_sem_nome_1160-2);}.cls-7{fill:url(#Gradiente_sem_nome_1160-3);}</style><radialGradient id="Gradiente_sem_nome_1055" cx="40.13" cy="42.22" fx="-8.632149979084573" r="48.76" gradientUnits="userSpaceOnUse"><stop offset="0" stop-color="#0ba9f4"/><stop offset="1" stop-color="#62e1fb"/></radialGradient><radialGradient id="Gradiente_sem_nome_1038" cx="36.72" cy="58.33" fx="-27.309482179640227" r="64.03" gradientUnits="userSpaceOnUse"><stop offset="0.03" stop-color="#fff" stop-opacity="0"/><stop offset="0.64" stop-color="#fff" stop-opacity="0"/><stop offset="1" stop-color="#fff"/></radialGradient><linearGradient id="Gradiente_sem_nome_83" x1="13.36" y1="28.94" x2="43.65" y2="28.94" gradientUnits="userSpaceOnUse"><stop offset="0.03" stop-opacity="0"/><stop offset="1"/></linearGradient><linearGradient id="Gradiente_sem_nome_1160" x1="11.2" y1="22.98" x2="17.7" y2="29.49" gradientUnits="userSpaceOnUse"><stop offset="0" stop-color="#fff"/><stop offset="0.6" stop-color="#fff" stop-opacity="0"/></linearGradient><linearGradient id="Gradiente_sem_nome_1160-2" x1="17.95" y1="20.12" x2="26.37" y2="28.54" xlink:href="#Gradiente_sem_nome_1160"/><linearGradient id="Gradiente_sem_nome_1160-3" x1="24.18" y1="16.63" x2="34.92" y2="27.37" xlink:href="#Gradiente_sem_nome_1160"/></defs><g id="Camada_2" data-name="Camada 2"><g id="Camada_1-2" data-name="Camada 1"><circle class="cls-1" cx="22" cy="22" r="22"/><circle class="cls-2" cx="22" cy="22" r="22"/><path class="cls-3" d="M43.65,25.93,31.82,14.1,30.21,24.58,24.66,19,23,29l-5.81-5.8-3.82,8.83L25.1,43.78A22,22,0,0,0,43.65,25.93Z"/><rect id="graph-3" class="cls-4" x="11.98" y="20.76" width="4.95" height="10.96" rx="2.48"/><rect id="graph-2" class="cls-4" x="19.68" y="16.94" width="4.95" height="14.77" rx="2.48"/><rect id="graph-1" class="cls-4" x="27.07" y="12.28" width="4.95" height="19.43" rx="2.48"/><rect class="cls-5" x="11.98" y="20.76" width="4.95" height="10.96" rx="2.48"/><rect class="cls-6" x="19.68" y="16.94" width="4.95" height="14.77" rx="2.48"/><rect class="cls-7" x="27.07" y="12.28" width="4.95" height="19.43" rx="2.48"/></g></g></svg>