<svg xmlns="http://www.w3.org/2000/svg" width="600" height="562.191" viewBox="0 0 600 562.191"><g transform="translate(-19.5 -50.52)"><circle cx="15.454" cy="15.454" r="15.454" transform="translate(60.672 259.874)" fill="#00aeef"/><rect width="6.311" height="10.916" transform="translate(217.62 326.538) rotate(-71.3)" fill="#00aeef"/><rect width="6.311" height="10.916" transform="translate(240.034 334.178) rotate(-71.29)" fill="#00aeef"/><rect width="6.311" height="10.916" transform="translate(172.828 311.374) rotate(-71.3)" fill="#00aeef"/><rect width="6.311" height="10.916" transform="translate(195.221 318.953) rotate(-71.3)" fill="#00aeef"/><rect width="6.311" height="10.916" transform="translate(150.437 303.838) rotate(-71.29)" fill="#00aeef"/><path d="M206.637,447.819l2.022-5.976-4.148-1.407,15.643-7.023-1.815-4.033L194.15,440.253l12.6,23.342,3.892-2.1L202.5,446.418Z" transform="translate(-68.264 -148.082)" fill="#00aeef"/><path d="M408.939,494.985l8.156,15.088-4.148-1.407-2.022,5.976,4.136,1.4-15.63,7.029,1.815,4.026,24.189-10.879-12.6-23.33Z" transform="translate(-148.501 -172.906)" fill="#00aeef"/><path d="M322.841,158.43l-.536,4.392,17.019,2.059L169.15,288.523l3.71,5.1L343.028,169.991l-3.3,16.818,4.337.847,5.1-26.034Z" transform="translate(-58.493 -42.178)" fill="#00aeef"/><path d="M19.5,352.978h4.611v12.9h3.216v-12.9h4.611V349.81H19.5Z" transform="translate(0 -116.981)" fill="#00aeef"/><path d="M54.8,355.962H48.22V349.81H45.01v16.069h3.21V359.13H54.8v6.749h3.216V349.81H54.8Z" transform="translate(-9.971 -116.981)" fill="#00aeef"/><rect width="3.21" height="16.063" transform="translate(52.412 232.829)" fill="#00aeef"/><path d="M89.143,358.807c0-.9-.049-2.912-.049-3.509.207.414.737,1.218,1.127,1.827l5.9,8.772h2.869V349.81H95.819v6.816c0,.9.049,2.912.049,3.509-.207-.414-.737-1.218-1.127-1.827l-5.7-8.5H86v16.069h3.168Z" transform="translate(-25.992 -116.981)" fill="#00aeef"/><path d="M117.316,361.14l2.571-3.046,4.361,7.76H128.1l-5.9-10.514,4.709-5.555h-3.88l-4.5,5.482c-.439.524-1.036,1.261-1.267,1.626,0-.506.049-1.949.049-2.546V349.78H114.1v16.069h3.216Z" transform="translate(-36.976 -116.97)" fill="#00aeef"/><circle cx="15.454" cy="15.454" r="15.454" transform="translate(306.851 84.715) rotate(-22.5)" fill="#8045ce"/><rect width="6.311" height="11.044" transform="translate(323.953 244.756)" fill="#8045ce"/><rect width="6.311" height="11.044" transform="translate(323.953 268.682)" fill="#8045ce"/><rect width="6.311" height="11.044" transform="translate(323.953 172.963)" fill="#8045ce"/><rect width="6.311" height="11.044" transform="translate(323.953 220.823)" fill="#8045ce"/><rect width="6.311" height="11.044" transform="translate(323.953 196.896)" fill="#8045ce"/><path d="M516.05,447.09v-4.38h-6.3v4.368L498.075,434.53l-3.234,3.009L512.9,456.965l18.061-19.425-3.235-3.009Z" transform="translate(-185.793 -150.095)" fill="#8045ce"/><path d="M494.88,226.545l3.259,2.985,11.622-12.694v4.4h6.3v-4.349l11.726,12.42,3.21-3.04L512.795,206.98Z" transform="translate(-185.808 -61.154)" fill="#8045ce"/><path d="M755.7,265.413l-4.337.847,3.3,16.831-170.12-123.6-3.7,5.1L750.948,288.189l-17.013,2.059.536,4.392,26.333-3.2Z" transform="translate(-219.407 -42.592)" fill="#8045ce"/><path d="M479.873,57.909a3.533,3.533,0,0,0,1.7-3.125c0-2.753-1.974-4.264-5.092-4.264H469.11V66.607h7.31c3.448,0,5.72-1.827,5.72-5.19a3.655,3.655,0,0,0-2.266-3.509Zm-7.614-4.41h4.093c1.4,0,1.974.53,1.974,1.541,0,.9-.481,1.511-1.827,1.511h-4.264Zm4.264,10.057h-4.264V59.4h4.264c1.565,0,2.3.688,2.3,2.065C478.82,62.727,478.089,63.556,476.523,63.556Z" transform="translate(-175.736 0)" fill="#8045ce"/><path d="M502.189,66.869c4.081,0,6.518-2.686,6.518-7.346V50.55H505.49v9.021c0,2.571-1.261,4.154-3.3,4.154s-3.253-1.632-3.253-4.2V50.55H495.72v9.021C495.689,64.225,498.327,66.869,502.189,66.869Z" transform="translate(-186.137 -0.012)" fill="#8045ce"/><rect width="3.21" height="16.063" transform="translate(326.816 50.538)" fill="#8045ce"/><path d="M539.656,50.55H536.44V66.619h11.269V63.452h-8.053Z" transform="translate(-202.053 -0.012)" fill="#8045ce"/><path d="M564.825,50.55H559.8V66.619h4.794c4.136,0,8.217-2.388,8.217-8.035C572.811,52.706,569.418,50.55,564.825,50.55Zm-.232,12.944H563.01V53.675h1.7c3.4,0,4.8,1.626,4.8,4.91C569.51,61.521,567.969,63.494,564.594,63.494Z" transform="translate(-211.183 -0.012)" fill="#8045ce"/><path d="M488.571,555.473c0,4.66-2.437,7.346-6.518,7.346-3.88,0-6.493-2.62-6.493-7.31V546.5h3.21v8.973c0,2.57,1.218,4.2,3.283,4.2s3.3-1.584,3.3-4.154V546.5h3.216Z" transform="translate(-178.257 -193.86)" fill="#231f20"/><path d="M514.784,557.529c0,3.046-1.931,5.117-6.311,5.117a7.452,7.452,0,0,1-6.244-2.918l2.321-2.065a5.2,5.2,0,0,0,4.106,1.827c1.907,0,2.8-.53,2.8-1.748,0-1.029-.554-1.492-3.582-2.181s-5.025-1.626-5.025-4.794c0-2.918,2.57-4.709,5.738-4.709a7.669,7.669,0,0,1,5.848,2.528l-2.315,2.248a4.909,4.909,0,0,0-3.655-1.651c-1.724,0-2.3.731-2.3,1.444,0,1.011.688,1.334,3.235,1.931S514.784,554.039,514.784,557.529Z" transform="translate(-188.681 -193.687)" fill="#231f20"/><path d="M539.911,562.563h-11.5V546.5h11.159v3.143h-7.919v2.778h4.611v3.119h-4.611v3.88h8.284Z" transform="translate(-198.914 -193.86)" fill="#231f20"/><path d="M565.917,562.563h-3.7l-2.869-5.781h-3.234v5.781H552.9V546.5h7.486c3.046,0,5.531,1.675,5.531,5.092a4.568,4.568,0,0,1-3.046,4.727Zm-3.308-10.885c0-1.45-.871-2.047-2.3-2.047h-4.2v4.13h4.2C561.806,553.749,562.61,553.06,562.61,551.678Z" transform="translate(-208.486 -193.86)" fill="#231f20"/><circle cx="15.454" cy="15.454" r="15.454" transform="translate(154.272 557.26) rotate(-9.22)" fill="#e02455"/><rect width="10.648" height="6.311" transform="matrix(0.595, -0.804, 0.804, 0.595, 257.656, 448.994)" fill="#e02455"/><rect width="10.648" height="6.311" transform="matrix(0.595, -0.804, 0.804, 0.595, 271.368, 430.45)" fill="#e02455"/><rect width="10.584" height="6.273" transform="matrix(0.594, -0.805, 0.805, 0.594, 227.346, 484.91)" fill="#e02455"/><rect width="10.648" height="6.311" transform="translate(216.529 504.593) rotate(-53.53)" fill="#e02455"/><rect width="10.648" height="6.311" transform="matrix(0.595, -0.804, 0.804, 0.595, 243.944, 467.548)" fill="#e02455"/><path d="M459.824,654.378l-2.973-26.357L430.78,632.9l.81,4.349,16.855-3.161-2.6,3.521,5.068,3.752,2.6-3.515,1.919,17.031Z" transform="translate(-160.754 -225.723)" fill="#e02455"/><path d="M327.571,811l2.6-3.515-5.074-3.752-2.607,3.521-1.919-17.038-4.392.5,2.973,26.351,26.077-4.879-.81-4.343Z" transform="translate(-115.961 -289.121)" fill="#e02455"/><path d="M193.094,700.012l6-1.949L134.063,497.924l14.979,8.333,2.144-3.868L128.008,489.5,116.83,513.555l4.008,1.864,7.224-15.557Z" transform="translate(-38.043 -171.581)" fill="#e02455"/><path d="M144,962.723h3.216v-6.768h4.843V952.83h-4.843V949.8H155.5V946.66H144Z" transform="translate(-48.662 -350.268)" fill="#e02455"/><path d="M171.915,946.24c-4.2,0-7.115,3.125-7.115,8.309s2.869,8.266,7.072,8.266,7.09-3.125,7.09-8.309S176.093,946.24,171.915,946.24Zm0,13.4c-2.248,0-3.807-1.858-3.807-5.117s1.492-5.074,3.74-5.074,3.807,1.827,3.807,5.117-1.492,5.056-3.74,5.056Z" transform="translate(-56.792 -350.104)" fill="#e02455"/><path d="M196.57,946.66h-3.21v16.063h11.269v-3.168H196.57Z" transform="translate(-67.955 -350.268)" fill="#e02455"/><path d="M219.93,946.66h-3.21v16.063h11.269v-3.168H219.93Z" transform="translate(-77.086 -350.268)" fill="#e02455"/><path d="M244.7,946.24c-4.2,0-7.115,3.125-7.115,8.309s2.869,8.266,7.072,8.266,7.09-3.125,7.09-8.309S248.883,946.24,244.7,946.24Zm0,13.4c-2.248,0-3.807-1.858-3.807-5.117s1.492-5.074,3.74-5.074,3.807,1.827,3.807,5.117-1.468,5.056-3.74,5.056Z" transform="translate(-85.243 -350.104)" fill="#e02455"/><path d="M277.108,954.476c-.134.755-.323,1.974-.39,2.637-.116-.664-.365-1.858-.548-2.637l-1.907-7.828h-2.8l-1.882,7.828c-.183.78-.432,1.974-.548,2.637-.067-.664-.256-1.858-.39-2.637l-1.4-7.828h-3.35l3.35,16.063h3.009l2.016-8.26a26.753,26.753,0,0,0,.53-2.753c.091.609.323,1.791.548,2.753l1.974,8.242h3.143l3.356-16.063h-3.308Z" transform="translate(-95.523 -350.256)" fill="#e02455"/><circle cx="15.454" cy="15.454" r="15.454" transform="translate(562.381 259.874)" fill="#e58923"/><path d="M621.36,514.636l-2.022-5.976-4.142,1.407,8.144-15.082-3.892-2.1-12.6,23.342,24.195,10.861,1.815-4.026-15.649-7.023Z" transform="translate(-229.573 -172.906)" fill="#e58923"/><rect width="10.879" height="6.311" transform="translate(424.112 324.101) rotate(-18.73)" fill="#e58923"/><rect width="10.906" height="6.326" transform="matrix(0.948, -0.319, 0.319, 0.948, 402.611, 333.023)" fill="#e58923"/><rect width="10.879" height="6.311" transform="translate(491.084 301.392) rotate(-18.73)" fill="#e58923"/><rect width="10.879" height="6.311" transform="matrix(0.947, -0.321, 0.321, 0.947, 468.751, 309.01)" fill="#e58923"/><rect width="10.879" height="6.311" transform="translate(446.435 316.529) rotate(-18.73)" fill="#e58923"/><path d="M822.954,441.977l2.028,5.976,4.142-1.407-8.144,15.088,3.892,2.1,12.6-23.336L813.275,429.52l-1.815,4.033,15.636,7.023Z" transform="translate(-309.548 -148.137)" fill="#e58923"/><path d="M859.55,487.79,794.506,687.977l-7.218-15.545L783.28,674.3l11.178,24.055,23.172-12.889-2.144-3.868L800.5,689.932l65.05-200.193Z" transform="translate(-298.533 -170.913)" fill="#e58923"/><path d="M917.031,365.879h3.216v-12.9h4.611V349.81H912.42v3.168h4.611Z" transform="translate(-349.009 -116.981)" fill="#e58923"/><path d="M949.421,362.736h-8.284v-3.88h4.611v-3.125h-4.611v-2.772h7.943V349.81H937.92v16.069h11.5Z" transform="translate(-358.977 -116.981)" fill="#e58923"/><path d="M967.756,355.892c-2.546-.609-3.234-.92-3.234-1.925,0-.713.573-1.45,2.3-1.45a4.873,4.873,0,0,1,3.655,1.657l2.315-2.254a7.663,7.663,0,0,0-5.848-2.522c-3.167,0-5.738,1.791-5.738,4.7,0,3.167,2.065,4.112,5.025,4.8s3.582,1.145,3.582,2.181c0,1.218-.9,1.742-2.8,1.742A5.22,5.22,0,0,1,962.9,361l-2.315,2.065a7.448,7.448,0,0,0,6.244,2.912c4.38,0,6.311-2.065,6.311-5.117C973.128,357.36,970.3,356.465,967.756,355.892Z" transform="translate(-367.833 -116.82)" fill="#e58923"/><path d="M984.08,349.81v3.168h4.611v12.9h3.216v-12.9h4.611V349.81Z" transform="translate(-377.019 -116.981)" fill="#e58923"/><circle cx="15.454" cy="15.454" r="15.454" transform="translate(461.631 561.685) rotate(-22.5)" fill="#08c4a0"/><path d="M365.555,877.291l-3.009-3.24L343.12,892.117l19.425,18.055,3.009-3.234-12.56-11.671H563.743v-6.311H353.006Z" transform="translate(-126.491 -321.888)" fill="#08c4a0"/><rect width="6.311" height="10.617" transform="translate(371.394 425.633) rotate(-36.42)" fill="#08c4a0"/><rect width="6.311" height="10.617" transform="translate(385.047 444.147) rotate(-36.42)" fill="#08c4a0"/><rect width="6.311" height="10.623" transform="translate(412.376 481.172) rotate(-36.42)" fill="#08c4a0"/><rect width="6.311" height="10.617" transform="translate(398.715 462.663) rotate(-36.42)" fill="#08c4a0"/><rect width="6.311" height="10.617" transform="translate(426.034 499.694) rotate(-36.42)" fill="#08c4a0"/><path d="M576.789,637.843l2.595,3.527,5.08-3.746-2.6-3.521,16.843,3.174.816-4.343-26.071-4.9-3,26.351,4.392.5Z" transform="translate(-215.35 -225.727)" fill="#08c4a0"/><path d="M707.339,806.975l-2.595-3.515-5.08,3.746,2.6,3.521-16.849-3.174L684.6,811.9l26.065,4.91,3-26.357-4.392-.5Z" transform="translate(-259.963 -289.016)" fill="#08c4a0"/><path d="M765.636,946.648l-2.96,9.3c-.3.938-.609,2.041-.731,2.638-.14-.573-.463-1.742-.761-2.638l-3.046-9.3H754.58l5.738,16.045h3.125l5.714-16.063Z" transform="translate(-287.316 -350.256)" fill="#08c4a0"/><path d="M783.482,946.648l-6.152,16.045h3.454l1.261-3.576h5.878l1.261,3.576h3.533l-6.091-16.063Zm-.347,9.436,1.036-2.918c.317-.938.64-1.906.8-2.5.158.609.481,1.566.8,2.5l1.035,2.918Z" transform="translate(-296.208 -350.256)" fill="#08c4a0"/><path d="M810.68,946.66h-3.21v16.063h11.269v-3.168H810.68Z" transform="translate(-307.988 -350.268)" fill="#08c4a0"/><rect width="3.21" height="16.063" transform="translate(513.937 596.392)" fill="#08c4a0"/><path d="M848.665,946.66H843.64V962.7h4.794c4.13,0,8.217-2.382,8.217-8.028C856.651,948.816,853.258,946.66,848.665,946.66Zm-.232,12.944H846.85v-9.825h1.7c3.4,0,4.8,1.632,4.8,4.916C853.35,957.63,851.809,959.6,848.434,959.6Z" transform="translate(-322.126 -350.268)" fill="#08c4a0"/><path d="M873.3,946.648l-6.152,16.045h3.442l1.261-3.576h5.878l1.261,3.576h3.533l-6.091-16.063Zm-.347,9.436,1.036-2.918c.317-.938.609-1.906.8-2.5.165.609.487,1.566.8,2.5l1.036,2.918Z" transform="translate(-331.315 -350.256)" fill="#08c4a0"/><path d="M892.01,949.828h4.617v12.9h3.21v-12.9h4.617V946.66H892.01Z" transform="translate(-341.032 -350.268)" fill="#08c4a0"/><path d="M920.73,959.58V955.7h4.617v-3.119H920.73V949.8h7.943V946.66H917.52v16.063h11.5V959.58Z" transform="translate(-351.003 -350.268)" fill="#08c4a0"/></g></svg>